<svg width="21" height="21" viewBox="0 0 21 21" fill="none" xmlns="http://www.w3.org/2000/svg">
<path d="M1.94378 7.36268C1.71152 7.33273 1.4976 7.32539 1.29346 7.27589C0.583847 7.1023 0.0514881 6.49293 0.0172607 5.75826C-0.00657633 5.24424 -0.0194116 4.71494 0.0734915 4.21314C0.207345 3.49192 0.834441 2.97667 1.56422 2.95039C2.53909 2.91494 3.5158 2.93205 4.49128 2.92839C4.93257 2.92655 5.37386 2.92839 5.83838 2.92839C5.84326 2.83059 5.84877 2.74991 5.8506 2.66923C5.85916 2.27317 5.84571 1.87528 5.8781 1.48105C5.93678 0.766554 6.59749 0.107675 7.30893 0.0257738C7.43729 0.0111049 7.56747 0.00193686 7.69644 0.00193686C9.56428 0.000714448 11.4327 -0.00173037 13.3006 0.00193686C14.2174 0.00377047 14.8867 0.502514 15.0835 1.33497C15.1287 1.52506 15.1293 1.72737 15.1342 1.92479C15.1421 2.25056 15.136 2.57633 15.136 2.929C15.2528 2.929 15.3414 2.929 15.4306 2.929C16.6732 2.929 17.9164 2.92594 19.159 2.93022C20.0691 2.93327 20.7774 3.41246 20.918 4.24675C21.0152 4.8219 21.0115 5.4386 20.9192 6.01497C20.7939 6.7967 20.0923 7.3095 19.2996 7.33701C19.2244 7.33945 19.1492 7.33701 19.0428 7.33701C19.0428 7.44825 19.0428 7.5442 19.0428 7.64077C19.0428 11.179 19.0447 14.7167 19.0422 18.255C19.041 19.6051 18.1505 20.69 16.8315 20.9491C16.631 20.9883 16.4226 20.9974 16.2172 20.9974C12.3972 20.9999 8.57718 21.0011 4.75715 20.9987C3.36911 20.998 2.31417 20.1845 2.01346 18.8778C1.96089 18.6504 1.94561 18.4102 1.945 18.1755C1.94072 14.6605 1.94194 11.1454 1.94194 7.63038V7.36451L1.94378 7.36268ZM10.5013 4.40872C9.13644 4.40933 7.77162 4.40933 6.4068 4.40933C4.86656 4.40933 3.32632 4.40811 1.7867 4.40933C1.54038 4.40933 1.47926 4.47351 1.47682 4.72288C1.47437 4.99731 1.48293 5.27174 1.47437 5.54618C1.46765 5.76071 1.56544 5.85545 1.77325 5.85545C2.06296 5.85483 2.35267 5.85422 2.64239 5.85667C2.9486 5.85972 3.20408 5.9783 3.32938 6.2619C3.39967 6.42203 3.42106 6.61517 3.42167 6.79303C3.42656 10.5519 3.42534 14.3109 3.42595 18.0692C3.42595 18.1834 3.42717 18.2984 3.43695 18.412C3.49074 19.0416 3.98887 19.5134 4.62086 19.514C8.5399 19.5171 12.4589 19.5171 16.3774 19.514C16.9965 19.514 17.5008 19.0416 17.5491 18.4261C17.5692 18.1682 17.5631 17.9084 17.5631 17.6493C17.5637 14.0126 17.5631 10.3759 17.5643 6.73864C17.5643 6.14271 17.851 5.8585 18.4463 5.85545C18.7055 5.85422 18.9646 5.85544 19.2238 5.85422C19.4187 5.85361 19.519 5.76499 19.5135 5.55962C19.5068 5.31575 19.5122 5.07188 19.5122 4.82801C19.5122 4.43684 19.4847 4.40811 19.1015 4.40811C16.235 4.40811 13.3678 4.40811 10.5013 4.40811V4.40872ZM7.33338 2.8966H13.6563C13.6563 2.53171 13.6569 2.18272 13.6563 1.83372C13.6557 1.52934 13.6062 1.48105 13.2939 1.48105C11.4657 1.48105 9.63701 1.48105 7.8089 1.48105C7.7325 1.48105 7.65671 1.48044 7.58031 1.48227C7.42506 1.48533 7.33644 1.56418 7.33522 1.72064C7.33216 2.10754 7.33399 2.49504 7.33399 2.89721L7.33338 2.8966Z" fill="#514EFA"/>
</svg>
