<svg width="18" height="24" viewBox="0 0 18 24" fill="none" xmlns="http://www.w3.org/2000/svg">
<g clip-path="url(#clip0_51_406)">
<path d="M8.02258 24C7.5639 23.9217 7.0981 23.8708 6.64755 23.7599C4.18938 23.1507 2.316 21.7482 1.07216 19.5433C0.2565 18.0971 -0.108616 16.5288 0.0276666 14.869C0.0978421 14.0188 0.375493 13.2113 0.689757 12.421C1.50542 10.3707 2.60687 8.46984 3.79985 6.62392C5.1403 4.54815 6.52144 2.4978 7.88935 0.440342C8.26972 -0.131232 8.97249 -0.153607 9.3488 0.412882C11.4246 3.54332 13.6285 6.59239 15.4063 9.91199C16.0643 11.1416 16.6491 12.4037 17.0244 13.7564C17.3122 14.7938 17.3264 15.8332 17.124 16.8797C16.6043 19.5789 15.1134 21.5886 12.7426 22.9443C11.7185 23.5301 10.5997 23.8586 9.41897 23.9603C9.35795 23.9654 9.29896 23.9867 9.23896 24H8.02055H8.02258ZM8.64196 2.38085C8.59721 2.43577 8.57585 2.45814 8.55958 2.48255C7.16319 4.62442 5.74747 6.7541 4.37854 8.91326C3.4683 10.3483 2.68111 11.8525 2.09327 13.4553C1.66916 14.6097 1.59492 15.7752 1.88477 16.9682C2.27837 18.5893 3.12149 19.9166 4.47008 20.9092C5.82477 21.9069 7.34219 22.3636 9.02741 22.2771C10.1136 22.2212 11.1296 21.9344 12.0714 21.3974C13.6254 20.5136 14.6659 19.1975 15.2212 17.5113C15.6137 16.3193 15.7398 15.0948 15.2944 13.8876C14.9638 12.9916 14.614 12.0956 14.1858 11.2433C13.1525 9.18481 11.8944 7.25855 10.6191 5.34449C9.96614 4.36508 9.31523 3.38568 8.64501 2.37983L8.64196 2.38085Z" fill="#514EFA"/>
<path d="M11.275 20.5868C10.7594 20.5909 10.4136 20.3437 10.2916 19.9898C10.1766 19.6542 10.3078 19.2575 10.6058 19.0328C10.9404 18.7795 11.3076 18.5588 11.6025 18.2649C12.35 17.5205 12.7152 16.5929 12.8036 15.5464C12.8433 15.0714 13.244 14.7378 13.6946 14.7755C14.1461 14.8131 14.499 15.2087 14.4716 15.6705C14.3577 17.6293 13.483 19.164 11.871 20.2756C11.6524 20.4261 11.3981 20.5238 11.275 20.5868Z" fill="#514EFA"/>
</g>
<defs>
<clipPath id="clip0_51_406">
<rect width="17.2611" height="24" fill="white"/>
</clipPath>
</defs>
</svg>
