<svg width="44" height="22" viewBox="0 0 44 22" fill="none" xmlns="http://www.w3.org/2000/svg">
<path d="M42.9082 13.787C41.7287 9.12255 40.5894 8.67577 36.8141 7.84922L36.2199 7.70178C33.7581 7.15224 29.3305 3.83264 27.874 2.73802C26.3389 1.60395 24.4793 0.994524 22.5707 1.00004H15.1049C13.1972 1.00004 12.7593 1.24577 12.1562 1.85339L12.0847 1.93381L9.79269 5.11044C9.48887 5.41872 9.23421 5.727 9.00635 6.004C8.44787 6.68311 8.07704 7.13437 7.39346 7.26393L3.77899 7.71071C2.06334 8.03687 1 9.04213 1 10.3825V16.8608C1 17.0386 1.07061 17.209 1.19629 17.3347C1.32197 17.4604 1.49243 17.531 1.67017 17.531H5.06126C5.26554 18.4172 5.76421 19.208 6.47586 19.7742C7.18751 20.3405 8.07009 20.6488 8.97954 20.6488C9.88899 20.6488 10.7716 20.3405 11.4832 19.7742C12.1949 19.208 12.6935 18.4172 12.8978 17.531H28.294C28.4982 18.4172 28.9969 19.208 29.7086 19.7742C30.4202 20.3405 31.3028 20.6488 32.2122 20.6488C33.1217 20.6488 34.0043 20.3405 34.7159 19.7742C35.4276 19.208 35.9262 18.4172 36.1305 17.531H39.9997C40.4568 17.53 40.9076 17.4248 41.3179 17.2234C41.7282 17.0221 42.0873 16.7298 42.3677 16.3688C42.6481 16.0079 42.8425 15.5877 42.9362 15.1403C43.0299 14.6929 43.0203 14.2301 42.9082 13.787ZM10.0429 6.85289C10.2707 6.57589 10.4897 6.28995 10.7801 6.01741L10.8292 5.91465L13.1212 2.73802C13.4116 2.44761 13.6037 2.31805 15.0826 2.31805H22.5439C24.1646 2.31706 25.7424 2.83882 27.043 3.80583C28.982 5.26234 30.6172 6.39271 32.0201 7.23266H9.68099L10.0429 6.85289ZM8.98401 19.3181C8.45382 19.3181 7.93553 19.1609 7.49469 18.8664C7.05385 18.5718 6.71026 18.1531 6.50737 17.6633C6.30447 17.1735 6.25139 16.6345 6.35482 16.1145C6.45826 15.5945 6.71357 15.1168 7.08847 14.7419C7.46337 14.367 7.94103 14.1117 8.46103 14.0082C8.98103 13.9048 9.52003 13.9579 10.0099 14.1608C10.4997 14.3637 10.9184 14.7073 11.2129 15.1481C11.5075 15.589 11.6647 16.1072 11.6647 16.6374C11.6647 17.3484 11.3823 18.0302 10.8795 18.533C10.3768 19.0357 9.69497 19.3181 8.98401 19.3181ZM32.2167 19.3181C31.6865 19.3181 31.1682 19.1609 30.7274 18.8664C30.2866 18.5718 29.943 18.1531 29.7401 17.6633C29.5372 17.1735 29.4841 16.6345 29.5875 16.1145C29.691 15.5945 29.9463 15.1168 30.3212 14.7419C30.6961 14.367 31.1737 14.1117 31.6937 14.0082C32.2137 13.9048 32.7527 13.9579 33.2426 14.1608C33.7324 14.3637 34.1511 14.7073 34.4456 15.1481C34.7402 15.589 34.8974 16.1072 34.8974 16.6374C34.8974 17.3484 34.615 18.0302 34.1123 18.533C33.6095 19.0357 32.9277 19.3181 32.2167 19.3181ZM41.3087 15.5518C41.1541 15.7514 40.9556 15.9128 40.7286 16.0236C40.5016 16.1344 40.2522 16.1915 39.9997 16.1907H36.2065C36.0928 15.211 35.6231 14.3074 34.8867 13.6515C34.1502 12.9956 33.1984 12.6331 32.2122 12.6331C31.2261 12.6331 30.2743 12.9956 29.5378 13.6515C28.8014 14.3074 28.3317 15.211 28.218 16.1907H12.9738C12.8601 15.211 12.3904 14.3074 11.6539 13.6515C10.9175 12.9956 9.96572 12.6331 8.97954 12.6331C7.99336 12.6331 7.04157 12.9956 6.30513 13.6515C5.5687 14.3074 5.09899 15.211 4.9853 16.1907H2.34035V10.3825C2.34035 9.43976 3.63155 9.12255 3.98898 9.04213L7.50963 8.59535H34.6159C35.0387 8.78147 35.4767 8.93095 35.925 9.04213L36.5282 9.17616C39.9595 9.92676 40.5805 10.0697 41.6081 14.131C41.6689 14.375 41.6736 14.6297 41.6218 14.8758C41.5699 15.1219 41.4629 15.353 41.3087 15.5518Z" fill="#514EFA" stroke="#514EFA" stroke-width="0.741176"/>
</svg>
