<svg width="26" height="26" viewBox="0 0 26 26" fill="none" xmlns="http://www.w3.org/2000/svg">
<path d="M1 24.479V1.52291C1.17039 1.1305 1.46893 1.00141 1.89374 1.00188C9.3098 1.01033 16.7259 1.01174 24.1419 1C24.6756 0.999063 25.0005 1.32952 25 1.8576C24.9883 9.27178 24.9897 16.6864 24.9981 24.1011C24.9986 24.5254 24.8672 24.8226 24.4766 24.9944H1.5154C1.27742 24.8888 1.1028 24.7198 1 24.479ZM6.54034 5.45884C8.69583 7.61386 10.8631 9.78062 12.9937 11.9112C13.8851 11.0198 14.7976 10.1078 15.6852 9.22109C13.5443 7.08062 11.3813 4.91856 9.23095 2.7687C8.33627 3.66338 7.42657 4.57261 6.54034 5.45931V5.45884ZM20.544 6.54691C18.3861 8.70428 16.2189 10.871 14.0634 13.0256C14.952 13.9132 15.8622 14.8229 16.7522 15.7124C18.9095 13.5555 21.0772 11.3888 23.2313 9.23517C22.3371 8.34049 21.4279 7.43126 20.544 6.54691ZM5.44476 19.4578C7.60682 17.2962 9.77357 15.1299 11.9262 12.9782C11.0391 12.0905 10.1289 11.1808 9.23986 10.2918C7.08297 12.4482 4.91527 14.615 2.75885 16.7714C3.65305 17.6661 4.56275 18.5758 5.44476 19.4583V19.4578ZM12.9927 14.0508C12.083 14.9605 11.1729 15.8702 10.289 16.754C12.4463 18.9114 14.6145 21.0791 16.7531 23.2182C17.6511 22.3207 18.5645 21.4072 19.4573 20.5144C17.314 18.3716 15.151 16.2091 12.9927 14.0508ZM16.7273 8.16447C18.6523 6.24039 20.5726 4.32007 22.4765 2.41665C22.4887 2.41759 22.4587 2.41337 22.4286 2.41337C20.6886 2.41337 18.949 2.41102 17.2089 2.41853C17.1155 2.41853 17.0009 2.47768 16.9324 2.54527C16.0006 3.46717 15.0755 4.39518 14.1489 5.32225C14.101 5.37012 14.0587 5.42317 14.0235 5.4626C14.9464 6.38497 15.8561 7.2942 16.7268 8.16447H16.7273ZM8.16353 9.26568C6.24039 7.34349 4.3196 5.4227 2.41055 3.51411C2.41102 3.50754 2.40586 3.53711 2.40586 3.56669C2.40586 5.30629 2.40351 7.04589 2.41055 8.78549C2.41055 8.87937 2.46735 8.99437 2.53494 9.0629C3.45684 9.99466 4.38532 10.9194 5.31286 11.846C5.3612 11.8943 5.41425 11.9375 5.45415 11.9737C6.37558 11.0527 7.28528 10.1435 8.16306 9.26615L8.16353 9.26568ZM20.5496 14.0362C19.6268 14.9581 18.7128 15.8716 17.8247 16.7587C19.7324 18.6659 21.6546 20.5876 23.5796 22.5122C23.581 22.492 23.5862 22.4563 23.5862 22.4206C23.5862 20.6815 23.5885 18.9419 23.581 17.2028C23.581 17.1103 23.5172 16.9981 23.4486 16.9287C22.5319 16.003 21.6095 15.0834 20.6876 14.1625C20.6388 14.1137 20.5862 14.0691 20.5496 14.0357V14.0362ZM3.44229 23.5796C3.49862 23.5843 3.52725 23.5885 3.55589 23.5885C5.30347 23.5885 7.05105 23.5909 8.7991 23.5829C8.8911 23.5829 9.00188 23.5153 9.07135 23.4463C9.99137 22.5352 10.9062 21.6184 11.8216 20.7026C11.8755 20.6487 11.9262 20.5909 11.9577 20.5581C11.0325 19.6324 10.1191 18.7194 9.2117 17.8121C7.30828 19.715 5.38843 21.6339 3.44229 23.5796ZM7.47679 2.4298H3.48501C4.15297 3.09775 4.8228 3.76712 5.48231 4.42663C6.13337 3.77463 6.79898 3.10808 7.47679 2.4298ZM23.5669 7.46694V3.50942C22.9069 4.16799 22.2371 4.83689 21.5875 5.48513C22.2357 6.13431 22.8999 6.79945 23.5669 7.46741V7.46694ZM2.41618 22.5202C3.09118 21.8461 3.76149 21.1767 4.39799 20.5412C3.74412 19.8873 3.07522 19.2189 2.41618 18.5598V22.5202ZM18.5448 23.5679H22.476C21.824 22.9145 21.1556 22.2451 20.5144 21.6029C19.8685 22.247 19.2034 22.9107 18.5448 23.5679ZM14.9722 2.4298H11.0189C11.6807 3.09447 12.3445 3.76102 12.9988 4.41865C13.6513 3.76102 14.3136 3.094 14.9722 2.4298ZM2.42228 11.0236V14.9788C3.08602 14.316 3.75163 13.6513 4.40081 13.0031C3.75022 12.352 3.08508 11.6869 2.42228 11.0236ZM23.5697 14.9849V11.0222C22.9041 11.684 22.238 12.3473 21.5865 12.9955C22.2413 13.6522 22.9046 14.3178 23.5697 14.9849ZM14.9708 23.5805C14.3042 22.9135 13.6391 22.2479 13.0228 21.6316C12.3741 22.2794 11.708 22.9454 11.0715 23.5805H14.9708Z" fill="#514EFA" stroke="#FCFBFC" stroke-width="0.3"/>
</svg>
