<svg width="25" height="22" viewBox="0 0 25 22" fill="none" xmlns="http://www.w3.org/2000/svg">
<path d="M4.06667 20.7843C5.76034 20.7843 7.13333 19.4113 7.13333 17.7177C7.13333 16.024 5.76034 14.651 4.06667 14.651C2.37299 14.651 1 16.024 1 17.7177C1 19.4113 2.37299 20.7843 4.06667 20.7843Z" stroke="#514EFA" stroke-width="1.53333" stroke-miterlimit="10" stroke-linecap="round" stroke-linejoin="round"/>
<path d="M2.68652 14.651L2.99319 12.811C3.29986 11.201 4.75652 10.051 6.44319 10.051H8.97319C9.89319 10.051 10.8132 10.4344 11.4265 11.0477L14.4165 13.8844C16.7932 16.1844 15.1065 20.0177 11.7332 20.0177H6.05986" stroke="#514EFA" stroke-width="1.53333" stroke-miterlimit="10" stroke-linecap="round" stroke-linejoin="round"/>
<path d="M19.3999 20.0176H23.9999" stroke="#514EFA" stroke-width="1.53333" stroke-miterlimit="10" stroke-linecap="round" stroke-linejoin="round"/>
<path d="M13.2665 12.351C15.0298 10.5877 15.1065 7.82769 13.4965 5.98769L12.6532 4.99102C11.7332 3.99436 11.8865 2.38436 12.9598 1.54102C14.0332 0.697689 15.4898 0.851023 16.3332 1.92436C19.3232 5.68102 20.9332 10.3577 20.9332 15.111V20.0177" stroke="#514EFA" stroke-width="1.53333" stroke-miterlimit="10" stroke-linecap="round" stroke-linejoin="round"/>
</svg>
