<svg width="34" height="30" viewBox="0 0 34 30" fill="none" xmlns="http://www.w3.org/2000/svg">
<path d="M6.00004 27.806C8.20919 27.806 10.0001 26.0151 10.0001 23.8059C10.0001 21.5968 8.20919 19.8059 6.00004 19.8059C3.79088 19.8059 2 21.5968 2 23.8059C2 26.0151 3.79088 27.806 6.00004 27.806Z" stroke="white" stroke-width="3" stroke-miterlimit="10" stroke-linecap="round" stroke-linejoin="round"/>
<path d="M4.19995 19.8059L4.59995 17.4059C4.99996 15.3059 6.89998 13.8059 9.1 13.8059H12.4C13.6 13.8059 14.8 14.3059 15.6001 15.1059L19.5001 18.8059C22.6001 21.8059 20.4001 26.806 16.0001 26.806H8.59999" stroke="white" stroke-width="3" stroke-miterlimit="10" stroke-linecap="round" stroke-linejoin="round"/>
<path d="M26 26.806H32.0001" stroke="white" stroke-width="3" stroke-miterlimit="10" stroke-linecap="round" stroke-linejoin="round"/>
<path d="M18.0001 16.8059C20.3001 14.5059 20.4001 10.9059 18.3001 8.50585L17.2001 7.20584C16 5.90583 16.2 3.80581 17.6001 2.7058C19.0001 1.60579 20.9001 1.80579 22.0001 3.20581C25.9001 8.10585 28.0002 14.2059 28.0002 20.406V26.806" stroke="white" stroke-width="3" stroke-miterlimit="10" stroke-linecap="round" stroke-linejoin="round"/>
</svg>
